# xmcd CD database file
#
# Track frame offsets:
#	150
#	21541
#	43836
#	69614
#	90614
#	112277
#	138515
#	161703
#	183269
#	216489
#	243372
#	270306
#
# Disc length: 4085 seconds
#
# Revision: 1
# Processed by: cddbd v1.5.2PL0 Copyright (c) Steve Scherf et al.
# Submitted via: CDex 1.51
#
DISCID=b70ff30c
DTITLE=Joe Back and John Abercrombie - Coincidence
DYEAR=2007
DGENRE=Jazz
TTITLE0=Beautiful Love
TTITLE1=Vingt-six
TTITLE2=I Should Care
TTITLE3=Israel
TTITLE4=How Deep Is The Ocean
TTITLE5=Mikey Likes It
TTITLE6=My Funny Valentine
TTITLE7=All Blues
TTITLE8=My Romance
TTITLE9=The Turnaround
TTITLE10=Just A Waltz
TTITLE11=Things Ain't What They USed To Be
EXTD=YEAR: 2007
EXTT0=
EXTT1=
EXTT2=
EXTT3=
EXTT4=
EXTT5=
EXTT6=
EXTT7=
EXTT8=
EXTT9=
EXTT10=
EXTT11=
PLAYORDER=
